<svg width="76" height="73" viewBox="0 0 76 73" fill="none" xmlns="http://www.w3.org/2000/svg">
<path d="M36.4048 72.3095C56.2344 72.3095 72.3095 56.2344 72.3095 36.4048C72.3095 16.5751 56.2344 0.5 36.4048 0.5C16.5751 0.5 0.5 16.5751 0.5 36.4048C0.5 56.2344 16.5751 72.3095 36.4048 72.3095Z" stroke="#BBBFBD" stroke-miterlimit="10"/>
<path d="M70.0307 36.4011C70.0307 48.9497 63.1566 59.8922 52.9698 65.6703C51.8284 66.3176 50.6451 66.9034 49.429 67.4136C45.4231 69.0988 41.0231 70.0288 36.4073 70.0288C36.1003 70.0288 35.7971 70.0244 35.494 70.0161C35.307 70.0117 35.1205 70.0034 34.9336 69.9912C34.8008 69.9912 34.6719 69.9873 34.5391 69.9746C34.3399 69.9663 34.1408 69.9536 33.9455 69.9375C33.8625 69.9331 33.7795 69.9292 33.6965 69.9165C33.4598 69.9038 33.2274 69.8794 32.995 69.8584C32.7251 69.8296 32.4595 69.8003 32.1939 69.7671L40.5085 57.7413L18.4205 33.7938L4.00799 45.4378C3.8586 44.8983 3.72144 44.3584 3.59695 43.8063C3.55152 43.5988 3.50566 43.387 3.46416 43.1795C3.40606 42.9056 3.3519 42.6273 3.30647 42.3535C3.27327 42.1709 3.24008 41.9883 3.21518 41.8057C3.16931 41.5441 3.13219 41.2785 3.09462 41.0129C3.07365 40.8635 3.05312 40.7181 3.03652 40.5687C3.00726 40.3402 2.97843 40.1078 2.95746 39.8755L2.94479 39.7383C2.9199 39.4893 2.895 39.2403 2.8784 38.987C2.85743 38.7087 2.8369 38.4309 2.82424 38.1483V38.1317C2.80764 37.8452 2.79497 37.5591 2.79104 37.2681C2.78274 36.9816 2.77881 36.6911 2.77881 36.4006C2.77881 30.8174 4.14034 25.5538 6.54802 20.921C11.5504 11.2912 21.0771 4.38785 32.314 3.02239C33.655 2.86034 35.0205 2.77734 36.4069 2.77734C42.0522 2.77734 47.3782 4.17207 52.0481 6.63348L37.4033 18.4601L47.179 48.1027L66.1369 20.6891C68.6233 25.376 70.0307 30.7265 70.0307 36.4011Z" fill="#FF8F00"/>
<path d="M6.45928 20.8926L18.3313 33.7649L3.9188 45.4089C3.76942 44.8694 3.63226 44.3295 3.50777 43.7774C3.46234 43.5699 3.41648 43.3581 3.37498 43.1506C3.31688 42.8767 3.26272 42.5984 3.21729 42.3246C3.18409 42.142 3.1509 41.9594 3.126 41.7768C3.08057 41.5152 3.043 41.2496 3.00544 40.984C2.98447 40.8346 2.96394 40.6892 2.94734 40.5398C2.91808 40.3113 2.88925 40.0789 2.86828 39.8466L2.85605 39.7094C2.83115 39.4604 2.80625 39.2114 2.78966 38.9581C2.76913 38.6798 2.74816 38.402 2.73549 38.1194V38.1028C2.71889 37.8163 2.70666 37.5302 2.70229 37.2392C2.69399 36.9527 2.69006 36.6622 2.69006 36.3717C2.69006 30.7885 4.05159 25.5249 6.45928 20.8926Z" fill="#FF8F00"/>
<path d="M49.3399 67.3842C45.334 69.0694 40.934 69.9993 36.3178 69.9993C36.0107 69.9993 35.7076 69.995 35.4045 69.9867C35.2175 69.9823 35.031 69.974 34.844 69.9618C34.7112 69.9618 34.5824 69.9574 34.4496 69.9452C34.2504 69.9369 34.0512 69.9242 33.856 69.908C33.773 69.9037 33.69 69.8997 33.607 69.8871C33.3702 69.8748 33.1379 69.8499 32.9055 69.829C32.6355 69.8001 32.3699 69.7709 32.1044 69.7377L40.419 57.7119L49.3399 67.3842Z" fill="#FF8F00"/>
<path d="M51.9596 6.60516L37.3147 18.4317L32.2255 2.99407C33.5665 2.83202 34.9319 2.74902 36.3184 2.74902C41.9637 2.74859 47.2892 4.14331 51.9596 6.60516Z" fill="#FF8F00"/>
<path d="M69.9416 36.3717C69.9416 48.9203 63.0675 59.8628 52.8807 65.6409L47.09 48.0738L66.0479 20.6602C68.5346 25.3467 69.9416 30.6971 69.9416 36.3717Z" fill="#FF8F00"/>
<path d="M40.4194 57.7125L32.1048 69.7383C31.8929 69.7134 31.6815 69.6846 31.4697 69.6509C31.2954 69.626 31.1211 69.6012 30.9468 69.5723C30.7516 69.5435 30.5607 69.5099 30.3654 69.4727C30.1081 69.4273 29.8509 69.3814 29.5931 69.3273C29.373 69.2818 29.1533 69.236 28.9371 69.1862C28.7999 69.1569 28.6632 69.1237 28.526 69.0905C28.3434 69.049 28.1648 69.0032 27.9822 68.9577C27.3886 68.8083 26.8032 68.638 26.2223 68.4554C26.0104 68.389 25.799 68.3226 25.5915 68.2519C25.3094 68.1562 25.0311 68.061 24.7572 67.957C24.5 67.8657 24.2427 67.7661 23.9893 67.6665C23.7321 67.5669 23.4787 67.463 23.2297 67.3551C22.9807 67.2511 22.7318 67.1432 22.4867 67.0314C22.4867 67.0314 22.4828 67.0314 22.4784 67.027C22.2294 66.9148 21.9844 66.7986 21.7393 66.6824C20.992 66.3255 20.2655 65.9394 19.5518 65.5284C19.3277 65.3956 19.1036 65.2628 18.8835 65.13C18.4187 64.8517 17.9618 64.5573 17.5176 64.2542C17.2935 64.1048 17.0733 63.951 16.8536 63.7934C16.6335 63.6396 16.4138 63.478 16.1976 63.3159C16.1893 63.3116 16.181 63.3033 16.1687 63.295C15.9652 63.1412 15.7577 62.9835 15.5585 62.8258C15.3798 62.6847 15.2056 62.5476 15.0313 62.4026C14.774 62.1951 14.5206 61.9793 14.2717 61.7631C14.0808 61.5971 13.8938 61.4311 13.7073 61.2607C13.5204 61.0904 13.3338 60.9161 13.1469 60.7418C13.1259 60.7208 13.1054 60.7042 13.0888 60.6877C12.9062 60.509 12.7236 60.3308 12.541 60.1482C12.3833 59.9905 12.2257 59.8284 12.068 59.6668C11.8522 59.4427 11.6364 59.2143 11.4285 58.9819C11.2459 58.7827 11.0672 58.5792 10.893 58.3756C10.7519 58.2179 10.6191 58.0559 10.4863 57.8943C10.4033 57.803 10.3286 57.7117 10.2539 57.616C10.1211 57.454 9.99225 57.2923 9.86383 57.1303C9.71838 56.9477 9.57729 56.7651 9.44057 56.5782C9.25361 56.3331 9.07102 56.0885 8.89674 55.8351C8.73905 55.615 8.58529 55.3953 8.43591 55.1708C8.32801 55.0131 8.22405 54.8554 8.12053 54.6933C8.05414 54.5977 7.99167 54.4981 7.92965 54.3985C7.64747 53.9586 7.37359 53.5061 7.11194 53.0492C6.99138 52.8334 6.87126 52.6176 6.7507 52.3975C6.47682 51.8951 6.21517 51.3845 5.97013 50.8656C5.86223 50.6498 5.76264 50.4296 5.66305 50.2099C5.55909 49.9776 5.45557 49.7452 5.35597 49.5128C5.34767 49.4962 5.34374 49.4752 5.33544 49.4586C5.23148 49.2136 5.12796 48.9646 5.02837 48.7156C5.02837 48.7073 5.024 48.699 5.02007 48.6868C4.92047 48.4378 4.82481 48.1845 4.73352 47.9315C4.64223 47.6909 4.55487 47.4458 4.47187 47.1968C4.39718 46.9767 4.32248 46.7526 4.25172 46.5285C4.20193 46.3625 4.14776 46.1922 4.09796 46.0262C4.09403 46.0135 4.08967 46.0052 4.08967 45.993C4.03157 45.7977 3.97348 45.6029 3.91931 45.4077L18.3318 33.7637L40.4194 57.7125Z" fill="#01579B"/>
<path d="M66.0479 20.6601L47.09 48.0737L37.3142 18.4311L51.9591 6.60449C57.9578 9.75912 62.881 14.6697 66.0479 20.6601Z" fill="#01579B"/>
<path d="M47.09 48.0738L40.4195 57.7124L18.3314 33.7648L37.3142 18.4307L47.09 48.0738Z" fill="#FF8F00"/>
<path d="M42.5427 31.6948L42.6484 29.9244L43.83 29.3605C47.2118 27.7465 49.3661 24.3328 49.3661 20.585C49.3661 17.3277 48.3308 14.1561 46.4106 11.5269L45.0915 9.7207L33.845 13.486L33.9428 17.7104H33.2003C31.692 17.7104 30.4689 18.933 30.4689 20.4417C30.4689 21.95 31.6915 23.1731 33.2003 23.1731H34.0691L34.2014 28.9071V30.9199C34.2014 30.9199 32.1703 32.8768 28.3154 34.5371C28.3154 34.5371 32.6132 39.9334 39.7153 40.2894C46.8173 40.6454 47.0908 36.3747 47.0908 36.3747C47.0908 36.3747 44.1458 34.6118 42.4571 33.1515L42.5427 31.6948Z" fill="#FF996A"/>
<path d="M42.6486 29.9242L42.5428 31.6946C42.2436 31.6592 41.93 31.6124 41.6046 31.553C36.5756 30.6362 34.6069 26.0908 34.8109 23.749C34.8109 23.749 36.507 29.3817 42.6486 29.9242Z" fill="#D37A57"/>
<path d="M33.1152 19.6594C33.3257 19.8188 33.5196 20.0298 33.5891 20.2932C33.5891 20.2932 33.1693 20.433 33.1309 20.9039C33.0929 21.3747 33.5891 21.5783 33.5891 21.5783C33.5891 21.5783 33.2073 22.2143 32.5713 21.871C31.9353 21.5276 32.0406 20.3282 32.6731 20.077C32.6731 20.077 31.668 19.9625 31.2989 20.3317C31.2989 20.3317 31.2146 19.9617 31.6348 19.6341C32.0681 19.2969 32.6775 19.3279 33.1152 19.6594Z" fill="#D37A57"/>
<path d="M42.4065 16.3321C42.348 16.3339 42.2894 16.3553 42.2414 16.3968C41.2813 17.2363 40.2936 16.5759 40.2836 16.5689C40.1639 16.4868 40.0005 16.5173 39.9184 16.637C39.8363 16.7567 39.8669 16.9201 39.9861 17.0022C40.4435 17.3158 41.5757 17.6766 42.5869 16.7925C42.6961 16.6973 42.7074 16.5313 42.6118 16.4221C42.5585 16.3601 42.4821 16.33 42.4065 16.3321Z" fill="#3F2D1F"/>
<path d="M48.3156 16.9779C48.264 16.9495 48.2029 16.9381 48.1409 16.9499C46.8872 17.1845 46.3722 16.1139 46.3674 16.1029C46.3063 15.971 46.1499 15.9147 46.0184 15.9758C45.8869 16.037 45.8301 16.1934 45.8913 16.3248C46.1259 16.8276 46.9174 17.7135 48.2374 17.4667C48.3802 17.44 48.4741 17.3029 48.4471 17.16C48.4318 17.0792 48.382 17.0146 48.3156 16.9779Z" fill="#3F2D1F"/>
<path d="M42.2627 19.455C42.2627 19.455 42.261 20.478 40.9217 20.6475C39.5825 20.8169 39.3387 19.455 39.3387 19.455C39.3387 19.455 40.0992 18.7421 41.0825 18.7211C42.0653 18.7002 42.2627 19.455 42.2627 19.455Z" fill="white"/>
<path d="M48.3802 19.4544C48.3802 19.4544 48.3785 20.4774 47.0685 20.6469C45.7585 20.8168 45.5829 19.4553 45.5829 19.4553C45.5829 19.4553 46.2639 18.7411 47.2257 18.7201C48.1871 18.6996 48.3802 19.4544 48.3802 19.4544Z" fill="white"/>
<path d="M45.5825 19.456C45.5825 19.456 46.284 18.6851 47.0353 18.5466C47.7862 18.4081 48.3016 18.7738 48.3803 19.456C48.3803 19.456 48.2313 18.8926 47.48 18.8235C46.7291 18.7545 45.5825 19.456 45.5825 19.456Z" fill="#3F2D1F"/>
<path d="M39.3387 19.455C39.3387 19.455 40.0721 18.6495 40.8571 18.5049C41.642 18.3603 42.1806 18.7425 42.2623 19.455C42.2623 19.455 42.1068 18.8661 41.3219 18.7941C40.5369 18.722 39.3387 19.455 39.3387 19.455Z" fill="#3F2D1F"/>
<path d="M44.2961 19.4844L44.9138 23.2121C44.9138 23.2121 45.4052 23.2501 46.0857 22.9727C46.0857 22.9727 44.4726 19.9033 44.2961 19.4844Z" fill="#D37A57"/>
<path d="M40.1377 19.7171C40.1377 20.3041 40.5138 20.7798 40.9777 20.7798C41.4416 20.7798 41.8177 20.3041 41.8177 19.7171C41.8177 19.1304 41.4416 18.6543 40.9777 18.6543C40.5138 18.6543 40.1377 19.1304 40.1377 19.7171Z" fill="#3F2D1F"/>
<path d="M46.0272 19.7503C46.0272 20.319 46.3941 20.7798 46.8467 20.7798C47.2992 20.7798 47.6657 20.319 47.6657 19.7503C47.6657 19.1815 47.2988 18.7207 46.8467 18.7207C46.3937 18.7207 46.0272 19.1815 46.0272 19.7503Z" fill="#3F2D1F"/>
<path d="M38.4892 23.2143C39.1658 23.2143 39.7144 22.8387 39.7144 22.3752C39.7144 21.9118 39.1658 21.5361 38.4892 21.5361C37.8125 21.5361 37.2639 21.9118 37.2639 22.3752C37.2639 22.8387 37.8125 23.2143 38.4892 23.2143Z" fill="#D37A57"/>
<path d="M48.4961 22.812C49.173 22.812 49.7218 22.4363 49.7218 21.9729C49.7218 21.5095 49.173 21.1338 48.4961 21.1338C47.8191 21.1338 47.2704 21.5095 47.2704 21.9729C47.2704 22.4363 47.8191 22.812 48.4961 22.812Z" fill="#D37A57"/>
<path d="M44.7413 24.6484C44.7413 24.6484 42.7621 24.7152 41.9614 25.449C41.1607 26.1829 44.1184 26.4052 44.7413 26.116C45.3637 25.8273 45.6406 24.5558 44.7413 24.6484Z" fill="white"/>
<path d="M39.9171 19.054C39.9171 19.054 39.5227 19.2409 39.0929 18.9648C39.0929 18.9648 39.1331 19.3693 39.3393 19.4549L39.9171 19.054Z" fill="#3F2D1F"/>
<path d="M47.9269 18.7793C47.9269 18.7793 48.3925 19.1646 48.7463 19.0462C48.8765 19.0025 48.3816 19.4559 48.3816 19.4559C48.2637 19.0261 47.9269 18.7793 47.9269 18.7793Z" fill="#3F2D1F"/>
<path d="M50.6299 38.5312C50.6299 38.5312 56.9278 50.042 59.3293 59.6946L52.8357 63.4761C52.8357 63.4761 50.2546 58.3169 49.3657 50.4002C48.4773 42.4831 50.6299 38.5312 50.6299 38.5312Z" fill="#847062"/>
<path d="M47.0898 12.54C47.0898 12.54 40.7972 18.4955 35.0453 17.8433C35.0453 17.8433 34.4224 22.024 35.4603 23.6253C35.4603 23.6253 35.0156 24.0661 34.3927 22.3927C33.7698 20.7192 34.2617 18.4077 33.9415 17.7105C33.9415 17.7105 32.0221 17.2558 30.7611 19.2101C29.5 21.1643 32.2602 23.5506 34.0677 23.1728L34.1507 26.7664C34.1507 26.7664 32.0798 27.5391 30.3304 26.0566C28.581 24.5741 29.4411 23.0618 29.4411 23.0618C29.4411 23.0618 26.8023 20.4572 26.6835 16.84C26.5647 13.2227 29.5743 10.9496 29.5743 10.9496C29.5743 10.9496 30.5676 5.59782 37.1795 5.53842C43.7915 5.47901 45.7187 7.46561 45.7187 7.46561C45.7187 7.46561 49.9868 8.19202 51.1893 12.7287C52.3918 17.2654 49.3652 19.6914 49.3652 19.6914C49.3652 19.6914 48.4903 13.8788 47.0898 12.54Z" fill="#3F2D1F"/>
<path d="M30.6869 10.3272C30.6869 10.3272 30.3689 6.44043 26.6805 6.60467C22.9925 6.76891 22.2809 10.9942 23.8818 12.9511C25.4832 14.908 27.5733 14.4633 29.1301 12.9511C30.6869 11.4393 30.6869 10.3272 30.6869 10.3272Z" fill="#3F2D1F"/>
<path d="M35.5001 25.6203L33.1754 30.4606C33.0924 30.6349 32.8723 30.6847 32.7189 30.5685L32.6233 30.4938L25.0062 24.6074C24.89 24.5161 24.8525 24.354 24.9232 24.2212L27.5506 19.4102L27.6131 19.298C27.7005 19.132 27.9202 19.0905 28.0656 19.2106L35.4215 25.2586C35.525 25.3464 35.5582 25.4958 35.5001 25.6203Z" fill="white"/>
<path d="M51.5319 66.4092C46.9864 68.7047 41.8474 69.9959 36.4052 69.9959C31.9262 69.9959 27.6507 69.1201 23.7443 67.5262L21.2576 39.0454C21.2576 39.0454 21.7682 37.082 24.8149 35.9611C28.2771 34.6826 28.3142 34.5371 28.3142 34.5371C41.5106 41.1788 47.0895 36.3717 47.0895 36.3717L49.9952 37.8494C50.2817 37.9949 50.5058 38.2356 50.6303 38.5304C51.3152 40.1702 53.5857 45.857 53.8142 49.7756C53.9933 52.8979 52.5156 61.2868 51.5319 66.4092Z" fill="#9C897A"/>
<path d="M22.7143 37.1133C22.7143 37.1133 19.4963 38.3909 18.3313 46.8117C17.1659 55.2325 18.41 59.6941 18.41 59.6941L24.8158 52.0897C24.8158 52.0897 27.0085 40.4321 22.7143 37.1133Z" fill="#9C897A"/>
<path d="M32.2791 24.797C31.665 25.1517 30.0663 26.2699 29.7806 26.7408C29.6434 26.9675 29.5862 27.2256 29.5626 27.4344L29.1608 27.2339C29.3634 26.3673 29.7378 25.5011 29.7378 25.5011C29.7378 25.5011 30.3751 25.16 30.7311 24.6559C31.0871 24.1518 30.9534 23.7491 30.9534 23.7491C30.7106 23.8893 30.3196 24.1448 29.9121 24.434C29.9177 24.4261 29.9247 24.4192 29.9304 24.4109C30.286 23.9068 30.1527 23.504 30.1527 23.504C29.515 23.8723 27.8551 25.0333 27.5585 25.5225C27.3987 25.7864 27.3436 26.0904 27.3253 26.3171L27.213 26.2612C27.4035 25.3443 27.8254 24.3663 27.8254 24.3663C27.8254 24.3663 28.4627 24.0251 28.8187 23.5211C29.1743 23.017 29.0411 22.6143 29.0411 22.6143C28.4033 22.9825 26.7435 24.1435 26.4469 24.6327C26.1503 25.122 26.2097 25.7593 26.2097 25.7593L26.4469 29.94L26.6806 34.5356C26.6806 34.5356 18.2336 53.8679 18.3314 58.5824C18.4293 63.2968 21.258 65.1646 21.258 65.1646C21.258 65.1646 24.2825 64.8086 26.2097 61.8313C28.1369 58.854 29.916 36.1662 29.916 36.1662C29.916 36.1662 30.9241 34.6243 31.1019 33.1496C31.2797 31.675 30.6027 27.9529 30.6027 27.9529C30.8036 27.1898 31.1085 26.4831 31.1085 26.4831C31.1085 26.4831 31.7226 26.1546 32.0651 25.6693C32.4076 25.1844 32.2791 24.797 32.2791 24.797Z" fill="#FF996A"/>
<path d="M35.5001 25.6209L33.1754 30.4611C33.0924 30.6354 32.8723 30.6852 32.719 30.569L32.6233 30.4943L34.9729 25.4426L27.5507 19.4112L27.6131 19.2989C27.7005 19.133 27.9202 19.0915 28.0657 19.2116L35.4215 25.2596C35.525 25.347 35.5582 25.4964 35.5001 25.6209Z" fill="#D9D9D9"/>
<path d="M27.551 20.3789L27.2286 21.0127L28.83 22.3022L29.1969 21.6906L27.551 20.3789Z" fill="#D9D9D9"/>
<path d="M73.8584 39.4626L72.064 39.7964L72.0156 39.6374C72.5345 39.46 73.7536 38.9804 74.2472 38.2405C74.8814 37.2891 75.1038 36.3692 75.1038 36.3692C75.1038 36.3692 74.0043 36.9444 73.5811 38.0426L72.731 38.2007C73.0718 37.9897 73.3876 37.7342 73.5859 37.4367C74.2201 36.4849 74.4425 35.5654 74.4425 35.5654C74.4425 35.5654 73.343 36.1407 72.9197 37.2388L71.8478 37.438C72.2925 37.089 72.7581 36.6339 72.9525 36.1416C73.3727 35.078 73.3963 34.1318 73.3963 34.1318C73.3963 34.1318 72.4427 34.9255 72.2597 36.0879L71.0812 36.5801L65.9234 38.1911L65.9623 37.4463C65.9623 37.4463 66.1566 37.3297 66.7013 36.9016C67.246 36.4736 67.9257 34.6971 67.9257 34.6971C67.9257 34.6971 65.2227 35.9677 64.564 37.3681C63.9053 38.7686 63.2776 42.2311 63.2776 42.2311C63.2776 42.2311 57.0789 57.1477 55.9781 61.2572C55.9781 61.2572 53.8491 62.0806 52.8362 63.4753C52.8362 63.4753 55.0006 67.4485 56.7203 67.8635C56.7203 67.8635 61.7016 66.9147 64.0735 61.103C66.4454 55.2913 67.4011 43.5529 67.4011 43.5529L72.3803 40.8299C72.3803 40.8299 73.8846 40.4018 74.4031 39.6238C74.9221 38.8459 75.1033 38.0937 75.1033 38.0937C75.1033 38.0937 74.2044 38.565 73.8584 39.4626Z" fill="#FF996A"/>
<path d="M51.6812 56.3908C51.6812 56.3908 48.7647 55.8291 43.7728 55.8291C38.781 55.8291 33.7887 56.7652 33.7887 56.7652" stroke="#847062" stroke-miterlimit="10" stroke-linecap="round" stroke-linejoin="round"/>
<path d="M46.4247 9.0293C46.4247 9.0293 47.228 10.5101 47.159 11.5252" stroke="#543E2F" stroke-miterlimit="10" stroke-linecap="round" stroke-linejoin="round"/>
<path d="M45.1911 7.90527C45.1911 7.90527 41.9317 8.96628 40.1377 11.5247" stroke="#543E2F" stroke-miterlimit="10" stroke-linecap="round" stroke-linejoin="round"/>
<path d="M30.0754 9.55957C30.0754 9.55957 29.5451 10.7451 29.5137 11.1819C29.5137 11.1819 27.7717 12.8042 27.5507 13.7403" stroke="#543E2F" stroke-miterlimit="10" stroke-linecap="round" stroke-linejoin="round"/>
<path d="M23.5233 13.958C23.6482 14.0515 25.371 15.3567 27.1383 14.2568" stroke="#543E2F" stroke-miterlimit="10" stroke-linecap="round" stroke-linejoin="round"/>
<path d="M32.2249 9.02861C32.2249 9.02861 36.2684 5.30001 42.9612 7.26565" stroke="#543E2F" stroke-miterlimit="10" stroke-linecap="round" stroke-linejoin="round"/>
<path d="M33.0396 16.7292C33.0396 16.7292 34.7763 17.4294 38.4892 16.7292C42.202 16.029 45.5825 12.2266 45.5825 12.2266" stroke="#543E2F" stroke-miterlimit="10" stroke-linecap="round" stroke-linejoin="round"/>
<path d="M31.54 37.1133C31.54 37.1133 36.6175 39.2309 41.8177 38.919C47.0179 38.6072 47.6657 37.6711 47.6657 37.6711" stroke="#847062" stroke-miterlimit="10" stroke-linecap="round" stroke-linejoin="round"/>
</svg>
