<svg width="24" height="24" viewBox="0 0 24 24" fill="none" xmlns="http://www.w3.org/2000/svg">
<rect width="24" height="24" fill="white"/>
<path fill-rule="evenodd" clip-rule="evenodd" d="M21.6 12.2273C21.6 11.5182 21.5364 10.8364 21.4182 10.1819H12V14.0501H17.3818C17.15 15.3001 16.4455 16.3592 15.3864 17.0682V19.5773H18.6182C20.5091 17.8364 21.6 15.2728 21.6 12.2273Z" fill="#4285F4"/>
<path fill-rule="evenodd" clip-rule="evenodd" d="M12.0001 22.0001C14.7001 22.0001 16.9637 21.1047 18.6183 19.5774L15.3864 17.0683C14.491 17.6683 13.3455 18.0229 12.0001 18.0229C9.39554 18.0229 7.19099 16.2638 6.40463 13.9001H3.06372V16.4911C4.70918 19.7592 8.09099 22.0001 12.0001 22.0001Z" fill="#34A853"/>
<path fill-rule="evenodd" clip-rule="evenodd" d="M6.40455 13.8999C6.20455 13.2999 6.09091 12.659 6.09091 11.9999C6.09091 11.3409 6.20455 10.6999 6.40455 10.0999V7.50903H3.06364C2.38636 8.85903 2 10.3863 2 11.9999C2 13.6136 2.38636 15.1409 3.06364 16.4909L6.40455 13.8999Z" fill="#FBBC05"/>
<path fill-rule="evenodd" clip-rule="evenodd" d="M12.0001 5.97727C13.4683 5.97727 14.7864 6.48182 15.8228 7.47273L18.691 4.60455C16.9592 2.99091 14.6955 2 12.0001 2C8.09099 2 4.70918 4.24091 3.06372 7.50909L6.40463 10.1C7.19099 7.73636 9.39554 5.97727 12.0001 5.97727Z" fill="#EA4335"/>
</svg>
