<svg width="25" height="32" viewBox="0 0 25 32" fill="none" xmlns="http://www.w3.org/2000/svg">
<path d="M15.8988 16.9719L11.864 13.0344C11.3617 12.5483 10.9364 12.0095 10.588 11.4181C10.2396 10.8266 10.0654 10.1825 10.0654 9.48578C10.0654 8.59458 10.3774 7.83706 11.0012 7.21321C11.625 6.58937 12.3826 6.27745 13.2738 6.27745C13.7923 6.27745 14.2784 6.38683 14.7321 6.60558C15.1858 6.82433 15.5747 7.12004 15.8988 7.49273C16.2228 7.12004 16.6117 6.82433 17.0654 6.60558C17.5191 6.38683 18.0052 6.27745 18.5238 6.27745C19.415 6.27745 20.1725 6.58937 20.7963 7.21321C21.4202 7.83706 21.7321 8.59458 21.7321 9.48578C21.7321 10.1825 21.562 10.8266 21.2217 11.4181C20.8814 12.0095 20.4601 12.5483 19.9578 13.0344L15.8988 16.9719ZM15.8988 14.2497L18.5481 11.649C18.8559 11.3411 19.1395 11.013 19.3988 10.6646C19.658 10.3162 19.7877 9.92328 19.7877 9.48578C19.7877 9.1293 19.6661 8.82953 19.4231 8.58648C19.18 8.34342 18.8802 8.2219 18.5238 8.2219C18.2969 8.2219 18.0822 8.26646 17.8797 8.35558C17.6771 8.4447 17.5029 8.57838 17.3571 8.75662L15.8988 10.5066L14.4404 8.75662C14.2946 8.57838 14.1204 8.4447 13.9179 8.35558C13.7153 8.26646 13.5006 8.2219 13.2738 8.2219C12.9173 8.2219 12.6175 8.34342 12.3745 8.58648C12.1314 8.82953 12.0099 9.1293 12.0099 9.48578C12.0099 9.92328 12.1395 10.3162 12.3988 10.6646C12.658 11.013 12.9416 11.3411 13.2495 11.649L15.8988 14.2497ZM7.14876 22.3191L13.9057 24.1663L19.6904 22.3677C19.6094 22.2219 19.4919 22.0963 19.338 21.991C19.1841 21.8857 19.0099 21.833 18.8154 21.833H13.9057C13.4682 21.833 13.1198 21.8168 12.8606 21.7844C12.6013 21.752 12.3339 21.6872 12.0585 21.59L9.79807 20.8365L10.3328 18.9406L12.3015 19.5969C12.577 19.6779 12.9011 19.7427 13.2738 19.7913C13.6464 19.84 14.1974 19.8724 14.9265 19.8886C14.9265 19.7103 14.8739 19.5402 14.7686 19.3781C14.6632 19.2161 14.5377 19.1108 14.3918 19.0622L8.70432 16.9719H7.14876V22.3191ZM1.31543 25.7219V15.0275H8.70432C8.81775 15.0275 8.93117 15.0396 9.0446 15.0639C9.15802 15.0882 9.26335 15.1166 9.36057 15.149L15.0724 17.2636C15.6071 17.458 16.0405 17.7983 16.3727 18.2844C16.7049 18.7705 16.871 19.3052 16.871 19.8886H18.8154C19.6256 19.8886 20.3143 20.1559 20.8814 20.6906C21.4485 21.2254 21.7321 21.9302 21.7321 22.8052V23.7775L13.9543 26.208L7.14876 24.3122V25.7219H1.31543ZM3.25987 23.7775H5.20432V16.9719H3.25987V23.7775Z" fill="#01579B"/>
</svg>
