<svg width="184" height="175" viewBox="0 0 184 175" fill="none" xmlns="http://www.w3.org/2000/svg">
<path d="M84.3168 29.5986C84.3168 29.5986 59.652 30.6845 46.5858 56.4745C33.5195 82.2645 20.0287 74.2146 12.0613 97.479C4.09397 120.743 20.1602 147.198 30.9297 150.065C41.6992 152.931 164.712 150.065 164.712 150.065C164.712 150.065 180.965 138.952 182.24 110.089C183.515 81.2262 159.294 71.5863 149.256 67.4829C139.217 63.3791 123.747 28.9613 84.3168 29.5986Z" fill="#F3F5F4"/>
<path d="M119.658 100.131C148.071 81.0144 153.58 71.1985 167.604 69.3731C201.761 64.9277 176.735 153.222 98.5161 172.089C61.353 181.054 15.3186 156.604 8.73504 137.607C2.37031 119.241 19.5063 112.352 44.8093 122.202C70.1131 132.053 105.182 109.872 119.658 100.131Z" stroke="#BBBFBD" stroke-miterlimit="10"/>
<path d="M153.002 81.2461C154.615 79.4833 154.493 76.7469 152.731 75.1341C150.968 73.5214 148.231 73.643 146.619 75.4058C145.006 77.1686 145.128 79.9051 146.89 81.5178C148.653 83.1306 151.39 83.0089 153.002 81.2461Z" fill="#D9D9D9"/>
<path d="M151.127 166.393C152.817 164.704 152.817 161.964 151.127 160.275C149.438 158.586 146.699 158.586 145.009 160.275C143.32 161.964 143.32 164.704 145.009 166.393C146.699 168.082 149.438 168.082 151.127 166.393Z" stroke="#BBBFBD" stroke-miterlimit="10"/>
<path d="M91.7246 69.2539C94.1138 69.2539 96.0507 67.317 96.0507 64.9277C96.0507 62.5384 94.1138 60.6016 91.7246 60.6016C89.3353 60.6016 87.3984 62.5384 87.3984 64.9277C87.3984 67.317 89.3353 69.2539 91.7246 69.2539Z" stroke="#BBBFBD" stroke-miterlimit="10"/>
<path d="M79.4827 82.21L75.0945 88.3183H83.434L79.4827 82.21Z" stroke="#BBBFBD" stroke-miterlimit="10" stroke-linecap="round" stroke-linejoin="round"/>
<path d="M58.861 159.806L56.1025 165.117H64.4416L58.861 159.806Z" fill="#D9D9D9"/>
<path d="M17.9603 94.5005C19.0077 90.0646 16.2609 85.6195 11.825 84.5721C7.3891 83.5246 2.94399 86.2715 1.89655 90.7074C0.849115 95.1433 3.596 99.5884 8.03188 100.636C12.4678 101.683 16.9129 98.9364 17.9603 94.5005Z" stroke="#BBBFBD" stroke-miterlimit="10" stroke-linecap="round" stroke-linejoin="round"/>
<path d="M13.3665 109.801V109.649C13.3834 108.038 13.5521 106.757 13.8725 105.804C14.193 104.851 14.6483 104.079 15.2387 103.489C15.829 102.899 16.5373 102.355 17.3637 101.857C17.8613 101.553 18.3082 101.195 18.7046 100.782C19.1009 100.36 19.4129 99.8753 19.6406 99.3272C19.8768 98.7791 19.9948 98.1719 19.9948 97.5057C19.9948 96.6793 19.8009 95.9625 19.4129 95.3553C19.025 94.7481 18.5064 94.2801 17.8571 93.9512C17.2077 93.6223 16.4867 93.4579 15.694 93.4579C15.0025 93.4579 14.3363 93.6013 13.6954 93.888C13.0545 94.1747 12.519 94.6259 12.089 95.2415C11.6589 95.8571 11.4101 96.6624 11.3426 97.6575H8.15501C8.22247 96.2239 8.59352 94.9969 9.26815 93.9765C9.95122 92.9561 10.8493 92.1761 11.9625 91.6364C13.084 91.0967 14.3279 90.8268 15.694 90.8268C17.1782 90.8268 18.4685 91.122 19.5647 91.7123C20.6694 92.3026 21.5212 93.1122 22.1199 94.141C22.7271 95.1698 23.0307 96.342 23.0307 97.6575C23.0307 98.5851 22.8873 99.4242 22.6006 100.175C22.3223 100.925 21.9175 101.596 21.3862 102.186C20.8634 102.776 20.2309 103.299 19.4888 103.754C18.7467 104.218 18.1522 104.707 17.7053 105.222C17.2583 105.728 16.9337 106.331 16.7313 107.031C16.5289 107.731 16.4193 108.603 16.4024 109.649V109.801H13.3665ZM14.9857 117.289C14.3616 117.289 13.8261 117.066 13.3792 116.619C12.9323 116.172 12.7088 115.636 12.7088 115.012C12.7088 114.388 12.9323 113.853 13.3792 113.406C13.8261 112.959 14.3616 112.736 14.9857 112.736C15.6097 112.736 16.1452 112.959 16.5921 113.406C17.0391 113.853 17.2626 114.388 17.2626 115.012C17.2626 115.426 17.1571 115.805 16.9463 116.151C16.7439 116.497 16.4699 116.775 16.1241 116.986C15.7868 117.188 15.4073 117.289 14.9857 117.289Z" fill="#FF8F00"/>
<path d="M100.754 38.1014C103.977 34.8784 103.977 29.6529 100.754 26.4299C97.531 23.2069 92.3055 23.2069 89.0826 26.4299C85.8596 29.6529 85.8596 34.8784 89.0826 38.1014C92.3055 41.3243 97.531 41.3243 100.754 38.1014Z" fill="#FF8F00"/>
<path d="M98.3531 49.4679V49.3161C98.37 47.7054 98.5386 46.4236 98.8591 45.4707C99.1795 44.5178 99.6349 43.7461 100.225 43.1558C100.816 42.5655 101.524 42.0216 102.35 41.5241C102.848 41.2205 103.295 40.8621 103.691 40.4489C104.087 40.0272 104.4 39.5423 104.627 38.9942C104.863 38.4461 104.981 37.8389 104.981 37.1727C104.981 36.3463 104.787 35.6295 104.4 35.0223C104.012 34.4151 103.493 33.9471 102.844 33.6182C102.194 33.2893 101.473 33.1249 100.681 33.1249C99.9891 33.1249 99.3229 33.2683 98.682 33.555C98.0411 33.8417 97.5056 34.2929 97.0755 34.9085C96.6455 35.5241 96.3967 36.3294 96.3292 37.3245H93.1416C93.209 35.8909 93.5801 34.6639 94.2547 33.6435C94.9378 32.6231 95.8359 31.8431 96.949 31.3034C98.0706 30.7637 99.3145 30.4938 100.681 30.4938C102.165 30.4938 103.455 30.789 104.551 31.3793C105.656 31.9696 106.508 32.7791 107.106 33.808C107.714 34.8368 108.017 36.009 108.017 37.3245C108.017 38.2521 107.874 39.0912 107.587 39.8417C107.309 40.5922 106.904 41.2627 106.373 41.853C105.85 42.4433 105.218 42.9661 104.475 43.4215C103.733 43.8853 103.139 44.3744 102.692 44.8888C102.245 45.3948 101.92 45.9977 101.718 46.6977C101.515 47.3976 101.406 48.2704 101.389 49.3161V49.4679H98.3531ZM99.9722 56.9563C99.3482 56.9563 98.8127 56.7328 98.3658 56.2859C97.9188 55.8389 97.6954 55.3034 97.6954 54.6794C97.6954 54.0554 97.9188 53.5199 98.3658 53.0729C98.8127 52.626 99.3482 52.4025 99.9722 52.4025C100.596 52.4025 101.132 52.626 101.579 53.0729C102.026 53.5199 102.249 54.0554 102.249 54.6794C102.249 55.0926 102.144 55.4721 101.933 55.8179C101.73 56.1636 101.456 56.4419 101.111 56.6527C100.773 56.8551 100.394 56.9563 99.9722 56.9563Z" fill="white"/>
<path d="M35.4401 96.9982C35.9653 94.7633 34.5794 92.5258 32.3446 92.0006C30.1098 91.4753 27.8723 92.8612 27.347 95.0961C26.8218 97.3309 28.2077 99.5684 30.4425 100.094C32.6773 100.619 34.9148 99.233 35.4401 96.9982Z" fill="#D9D9D9"/>
<path d="M178.639 21.7627H141.443C139.319 21.7627 137.598 23.4837 137.598 25.607V47.9939C137.598 50.1172 139.319 51.8382 141.443 51.8382H149.014L147.513 55.7175C147.078 56.841 148.379 57.8361 149.349 57.1227L156.539 51.8378H178.64C180.763 51.8378 182.484 50.1168 182.484 47.9935V25.6066C182.483 23.4837 180.762 21.7627 178.639 21.7627Z" fill="#FF8F00"/>
<path d="M141.986 28.0381H177.567" stroke="white" stroke-miterlimit="10" stroke-linecap="round" stroke-linejoin="round"/>
<path d="M141.986 31.2695H177.567" stroke="white" stroke-miterlimit="10" stroke-linecap="round" stroke-linejoin="round"/>
<path d="M141.986 34.502H177.567" stroke="white" stroke-miterlimit="10" stroke-linecap="round" stroke-linejoin="round"/>
<path d="M141.986 37.7344H177.567" stroke="white" stroke-miterlimit="10" stroke-linecap="round" stroke-linejoin="round"/>
<path d="M141.986 40.9658H177.567" stroke="white" stroke-miterlimit="10" stroke-linecap="round" stroke-linejoin="round"/>
<path d="M141.986 44.1973H177.567" stroke="white" stroke-miterlimit="10" stroke-linecap="round" stroke-linejoin="round"/>
<path d="M62.3358 92.9291C62.3358 92.9291 61.9571 89.7496 61.4653 88.2352C60.973 86.7212 58.8911 83.8444 58.8911 83.8444C58.8911 83.8444 58.0586 85.6235 59.2699 87.0995C59.2699 87.0995 59.1943 89.4464 59.3079 90.279C59.3079 90.279 55.3727 86.9178 54.6157 86.5771C54.1356 86.194 53.5499 85.727 52.8348 85.157C50.2231 83.0752 48.482 83.7186 48.7087 83.8702C48.8651 83.9741 51.852 86.3897 53.701 87.887L53.459 88.2334C52.8973 87.7853 52.0027 87.0711 50.677 86.0144C48.0653 83.9326 46.3237 84.576 46.5509 84.7276C46.7409 84.8543 51.1129 88.3955 52.5386 89.5508L52.118 90.1536C51.565 89.7125 50.6451 88.9782 49.2381 87.8569C46.6265 85.7751 44.8853 86.4185 45.112 86.5701C45.3064 86.6998 49.8872 90.4109 51.1972 91.4724L50.7512 92.1114C50.2651 91.6698 48.9145 90.4703 47.6106 89.5604C45.983 88.4247 44.8093 88.9546 44.8093 88.9546C44.8093 88.9546 44.8093 88.9546 45.5283 89.598C46.2473 90.2414 49.9947 93.1943 49.9947 93.1943C49.9947 93.1943 55.716 98.3045 57.1518 98.7963L58.5517 100.132L63.703 94.5562L62.3358 92.9291Z" fill="#FF996A"/>
<path d="M103.522 128.225C100.451 132.654 96.1543 135.39 90.4422 134.228C75.1456 131.118 57.084 101.426 57.084 101.426L57.993 100.442L64.7342 93.1489L88.1961 114.469L95.5227 103.863L102.679 93.5058L106.216 88.3877C106.216 88.3877 108.287 91.6629 109.591 102.074C110.405 108.598 108.686 120.794 103.522 128.225Z" fill="#D3AA7D"/>
<path d="M103.522 128.226C100.451 132.655 96.1543 135.391 90.4422 134.228C75.1456 131.119 57.084 101.426 57.084 101.426L57.993 100.443L58.5534 100.131C58.5534 100.131 80.0767 129.741 89.147 125.337C94.7552 122.613 95.6559 111.758 95.5231 103.863L102.68 93.5059L103.522 128.226Z" fill="#C1966B"/>
<path d="M160.978 125.336L159.584 149.879H154.179L156.303 125.336H160.978Z" fill="#01579B"/>
<path d="M127.895 125.336L126.502 149.879H121.097L123.222 125.336H127.895Z" fill="#01579B"/>
<path d="M161.531 129.585H118.71C114.454 129.585 111.003 126.134 111.003 121.878V97.9253C111.003 93.6691 114.454 90.2188 118.71 90.2188H161.531C165.787 90.2188 169.237 93.6691 169.237 97.9253V121.878C169.237 126.134 165.787 129.585 161.531 129.585Z" fill="#01579B"/>
<path d="M157.919 129.585H115.098C110.842 129.585 107.392 126.134 107.392 121.878V97.9253C107.392 93.6691 110.842 90.2188 115.098 90.2188H157.919C162.175 90.2188 165.626 93.6691 165.626 97.9253V121.878C165.625 126.134 162.175 129.585 157.919 129.585Z" fill="#FF8F00"/>
<path d="M125.643 79.1682C125.643 79.1682 134.088 77.8119 145.45 89.5659L148.071 149.879H100.586C100.586 149.879 95.4013 109.19 101.445 94.7194C107.489 80.2488 118.344 78.5213 125.643 79.1682Z" fill="#FFD294"/>
<path d="M109.076 46.4581L111.161 43.6035L128.936 49.5546L128.781 56.2308H129.955C132.339 56.2308 134.272 58.1632 134.272 60.5473C134.272 62.9314 132.339 64.8638 129.955 64.8638H128.582L128.372 73.9254V81.8884L115.504 83.658L115.189 78.3319L115.022 75.5338L113.155 74.6422C107.81 72.0917 104.405 66.6962 104.405 60.7736C104.405 55.6253 106.042 50.613 109.076 46.4581Z" fill="#FF996A"/>
<path d="M115.022 75.5331L115.189 78.3313C115.662 78.275 116.157 78.2016 116.671 78.1081C124.619 76.6592 127.73 69.4755 127.407 65.7744C127.407 65.7744 124.728 74.6757 115.022 75.5331Z" fill="#D37A57"/>
<path d="M130.088 59.3106C129.755 59.5627 129.448 59.896 129.339 60.3127C129.339 60.3127 130.002 60.5337 130.062 61.278C130.123 62.0219 129.339 62.3438 129.339 62.3438C129.339 62.3438 129.942 63.3494 130.947 62.8064C131.953 62.2635 131.786 60.3682 130.787 59.9711C130.787 59.9711 132.375 59.7903 132.958 60.3734C132.958 60.3734 133.091 59.7885 132.427 59.2713C131.743 58.7371 130.779 58.7869 130.088 59.3106Z" fill="#D37A57"/>
<path d="M109.077 46.4578C109.077 46.4578 111.483 50.6004 114.593 51.941C117.703 53.2816 121.028 51.3303 124.138 53.1103C127.248 54.8903 125.264 58.2262 125.961 59.8293C126.658 61.432 127.431 61.6464 127.431 61.6464C127.431 61.6464 127.849 57.0888 128.782 56.2309C128.782 56.2309 131.574 56.2073 132.444 57.0211C132.444 57.0211 134.004 53.8717 134.272 51.405C134.54 48.9384 131.805 48.1342 131.805 48.1342C131.805 48.1342 131.162 42.236 123.923 40.0376C116.684 37.8391 111.162 41.3244 108.266 40.0376C105.371 38.7507 102.743 40.6814 102.583 43.6037C102.422 46.5255 104.406 47.5983 104.406 47.5983C104.406 47.5983 103.065 48.7283 103.602 50.469C104.138 52.2096 105.821 52.6115 105.821 52.6115C105.821 52.6115 107.801 48.1976 109.077 46.4578Z" fill="#3F2D1F"/>
<path d="M110.518 67.657L117.888 67.2949C117.888 67.2949 116.182 69.9494 113.753 69.9241C111.517 69.9005 110.518 67.657 110.518 67.657Z" fill="white"/>
<path d="M118.989 55.6527C118.897 55.6527 118.803 55.6217 118.726 55.5579C117.17 54.2763 115.641 55.3648 115.625 55.3766C115.44 55.5125 115.18 55.4714 115.045 55.2862C114.91 55.101 114.95 54.8415 115.135 54.7061C115.843 54.1894 117.615 53.5674 119.254 54.9171C119.43 55.063 119.456 55.3246 119.31 55.5016C119.228 55.6011 119.109 55.6527 118.989 55.6527Z" fill="#3F2D1F"/>
<path d="M109.824 55.6527C109.731 55.6527 109.638 55.6217 109.56 55.5579C108.005 54.2763 106.475 55.3648 106.459 55.3766C106.274 55.5125 106.014 55.4714 105.879 55.2862C105.744 55.101 105.785 54.8415 105.97 54.7061C106.678 54.1894 108.45 53.5674 110.088 54.9171C110.265 55.063 110.29 55.3246 110.144 55.5016C110.063 55.6011 109.944 55.6527 109.824 55.6527Z" fill="#3F2D1F"/>
<path d="M130.732 79.7977L128.4 76.7637L119.136 80.0284L117.636 82.6313L116.621 80.2931L115.214 78.7568L113.754 81.5725C113.754 81.5725 113.798 84.396 117.371 85.146C120.944 85.896 128.753 82.9843 130.732 79.7977Z" fill="#9C897A"/>
<path d="M132.443 57.0213C132.443 57.0213 131.003 56.4713 129.636 57.7284C128.268 58.9856 128.731 60.2209 128.731 60.2209C128.731 60.2209 129.363 58.7314 130.717 58.8939C132.07 59.0563 133.055 62.7133 131.246 63.3973C129.437 64.0809 127.129 63.0392 127.21 60.2209C127.29 57.403 128.324 55.8091 130.027 55.5667C131.731 55.3238 132.405 56.7552 132.443 57.0213Z" fill="#FF8F00"/>
<path d="M119.653 71.1853C119.479 71.1853 119.323 71.0617 119.289 70.8839C119.25 70.6821 119.382 70.4873 119.584 70.4484C126.591 69.1009 128.964 62.5024 128.988 62.436C129.055 62.2425 129.266 62.1399 129.461 62.2072C129.655 62.2744 129.757 62.4858 129.69 62.6798C129.665 62.7505 127.161 69.7482 119.724 71.1783C119.701 71.1831 119.677 71.1853 119.653 71.1853Z" fill="#FF8F00"/>
<path d="M118.09 70.9412C118.09 71.8069 118.792 72.5089 119.658 72.5089C120.525 72.5089 121.226 71.8069 121.226 70.9412C121.226 70.0754 120.524 69.373 119.658 69.373C118.793 69.373 118.09 70.075 118.09 70.9412Z" fill="#01579B"/>
<path d="M130.54 59.5696C130.54 59.5696 130.342 61.3015 130.722 62.2284C131.103 63.1549 131.698 62.6753 131.814 61.5501C131.929 60.4249 130.805 58.8467 130.54 59.5696Z" fill="#01579B"/>
<path d="M115.631 58.9876C115.631 58.9876 115.634 60.6042 117.75 60.8724C119.866 61.1406 120.252 58.9876 120.252 58.9876C120.252 58.9876 119.05 57.861 117.496 57.8278C115.943 57.7942 115.631 58.9876 115.631 58.9876Z" fill="white"/>
<path d="M105.963 58.9876C105.963 58.9876 105.966 60.6042 108.037 60.8724C110.107 61.1406 110.385 58.9893 110.385 58.9893C110.385 58.9893 109.308 57.861 107.788 57.8278C106.268 57.7942 105.963 58.9876 105.963 58.9876Z" fill="white"/>
<path d="M110.384 58.9898C110.384 58.9898 109.275 57.7716 108.088 57.5527C106.902 57.3339 106.087 57.9118 105.963 58.9898C105.963 58.9898 106.199 58.0996 107.386 57.9904C108.573 57.8808 110.384 58.9898 110.384 58.9898Z" fill="#3F2D1F"/>
<path d="M120.252 58.9881C120.252 58.9881 119.093 57.7148 117.853 57.4863C116.612 57.2579 115.761 57.8616 115.632 58.9881C115.632 58.9881 115.878 58.0577 117.118 57.9432C118.359 57.8292 120.252 58.9881 120.252 58.9881Z" fill="#3F2D1F"/>
<path d="M112.418 59.0342L111.442 64.9254C111.442 64.9254 110.665 64.9853 109.589 64.5471C109.589 64.5471 112.139 59.6959 112.418 59.0342Z" fill="#D37A57"/>
<path d="M83.3772 149.879C83.3772 149.879 83.2187 145.175 88.5163 143.701C93.8143 142.227 100.268 146.537 101.303 149.879H83.3772Z" fill="#01579B"/>
<path d="M117.663 61.0817C118.396 61.0817 118.99 60.3298 118.99 59.4022C118.99 58.4746 118.396 57.7227 117.663 57.7227C116.93 57.7227 116.335 58.4746 116.335 59.4022C116.335 60.3298 116.93 61.0817 117.663 61.0817Z" fill="#3F2D1F"/>
<path d="M109.682 59.4543C109.682 60.3528 109.103 61.0814 108.387 61.0814C107.672 61.0814 107.093 60.3528 107.093 59.4543C107.093 58.5557 107.672 57.8271 108.387 57.8271C109.103 57.8271 109.682 58.5553 109.682 59.4543Z" fill="#3F2D1F"/>
<path d="M123.532 63.6021C123.532 64.3346 122.665 64.9282 121.595 64.9282C120.525 64.9282 119.658 64.3346 119.658 63.6021C119.658 62.87 120.525 62.2764 121.595 62.2764C122.665 62.2759 123.532 62.8696 123.532 63.6021Z" fill="#D37A57"/>
<path d="M107.717 62.9668C107.717 63.6989 106.85 64.2925 105.78 64.2925C104.71 64.2925 103.843 63.6989 103.843 62.9668C103.843 62.2343 104.71 61.6406 105.78 61.6406C106.85 61.6406 107.717 62.2343 107.717 62.9668Z" fill="#D37A57"/>
<path d="M158.499 134.904C157.158 138.939 154.705 141.99 151.799 144.148C149.819 145.614 147.632 146.664 145.448 147.324C136.332 150.089 102.572 149.877 102.572 149.877L103.842 139.678L141.646 131.181C141.646 131.181 136.756 115.668 136.971 103.136C137.167 91.4712 140.645 86.6641 144.564 88.9351C144.858 89.1094 145.153 89.3169 145.448 89.5658C145.448 89.5658 151.417 98.4614 157.577 116.73C160.097 124.203 160.052 130.213 158.499 134.904Z" fill="#E5BC89"/>
<path d="M100.002 141.032L91.9819 139.571C91.9819 139.571 90.5082 139.318 89.0339 139.956C87.5601 140.593 85.8867 143.701 85.8867 143.701C85.8867 143.701 87.2413 143.721 88.1573 142.894C89.0737 142.068 89.1929 141.351 89.1929 141.351L92.1361 141.58L92.1886 142.263C91.2057 142.478 88.4075 143.116 87.0421 143.701C85.3691 144.418 84.4924 146.609 84.4924 146.609C84.4924 146.609 86.6835 146.291 87.7986 144.936L92.3545 144.419L92.3873 144.845C91.4482 144.909 89.7713 145.119 88.1974 145.813C85.847 146.848 85.1302 148.243 85.1302 148.243C85.1302 148.243 87.4806 148.243 89.1335 146.968L90.2465 146.876C89.1466 147.581 88.1974 149.279 88.1974 149.279C88.1974 149.279 88.6753 149.399 89.7512 148.92C90.8266 148.442 91.1057 147.897 91.1057 147.897L94.2402 148.132C95.8678 148.364 98.3301 148.593 99.737 148.123L102.734 148.585L103.675 141.034H100.002V141.032Z" fill="#FF996A"/>
<path d="M166.769 154.815H15.9594C14.5966 154.815 13.4915 153.71 13.4915 152.347C13.4915 150.984 14.5966 149.879 15.9594 149.879H166.77C168.132 149.879 169.238 150.984 169.238 152.347C169.237 153.71 168.132 154.815 166.769 154.815Z" fill="#01579B"/>
<path d="M108.958 154.815H14.9722C14.1545 154.815 13.4915 153.71 13.4915 152.347C13.4915 150.984 14.1545 149.879 14.9722 149.879H61.9654H108.958C109.776 149.879 110.439 150.984 110.439 152.347C110.439 153.71 109.776 154.815 108.958 154.815Z" fill="#FF8F00"/>
<path d="M80.5376 140.367H28.6011C26.8495 140.367 25.3333 139.149 24.9564 137.438L18.2431 106.949C17.9137 105.454 19.0525 104.037 20.5835 104.037H73.1057C74.6581 104.037 76.0018 105.117 76.3355 106.633L83.0698 137.217C83.4258 138.835 82.194 140.367 80.5376 140.367Z" fill="#FF8F00"/>
<path d="M37.1175 135.203C36.6837 137.388 34.1341 138.723 31.4224 138.184C28.7107 137.646 26.8643 135.439 27.298 133.254C27.7318 131.069 30.2814 129.734 32.9931 130.273C35.7048 130.811 37.5512 133.018 37.1175 135.203Z" fill="#FF8F00"/>
<path d="M83.0692 137.217L76.3349 106.633C76.0012 105.117 74.6576 104.037 73.1052 104.037H70.0776C71.6301 104.037 72.9737 105.117 73.3074 106.633L80.0417 137.217C80.3981 138.835 79.1663 140.368 77.5095 140.368H80.537C82.1938 140.368 83.4256 138.835 83.0692 137.217Z" fill="#01579B"/>
<path d="M74.0814 148.654C74.0814 149.331 73.535 149.877 72.8583 149.877H29.7441C29.0526 149.877 28.424 149.595 27.9706 149.141C27.5133 148.688 27.2346 148.063 27.2346 147.368C27.2346 146.873 27.3831 146.39 27.6583 145.977L38.3291 129.99C38.634 129.54 39.1398 129.269 39.6823 129.269H58.3393C59.0085 129.269 59.4287 129.994 59.0902 130.574L50.0814 146.137C49.7468 146.713 50.1631 147.431 50.8249 147.431H72.8579C73.1964 147.431 73.5013 147.569 73.7241 147.792C73.9438 148.011 74.0814 148.316 74.0814 148.654Z" fill="#01579B"/>
<path d="M61.2814 121.99H34.8305C34.5226 121.99 34.2727 121.74 34.2727 121.432C34.2727 121.124 34.5226 120.874 34.8305 120.874H61.2814C61.5894 120.874 61.8392 121.124 61.8392 121.432C61.8392 121.74 61.5894 121.99 61.2814 121.99Z" fill="#01579B"/>
<path d="M62.5563 125.336H36.1049C35.797 125.336 35.5471 125.086 35.5471 124.779C35.5471 124.471 35.797 124.221 36.1049 124.221H62.5558C62.8638 124.221 63.1136 124.471 63.1136 124.779C63.1136 125.087 62.8642 125.336 62.5563 125.336Z" fill="#01579B"/>
<path d="M18.7908 105.843H74.8036C75.2592 105.843 75.6969 105.927 76.1009 106.077C75.5968 104.86 74.4013 104.037 73.0463 104.037H20.5241C19.3582 104.037 18.4222 104.859 18.1863 105.911C18.3793 105.867 18.5816 105.843 18.7908 105.843Z" fill="#FF8F00"/>
<path d="M76.3343 135.203C75.9005 137.388 73.3509 138.723 70.6392 138.184C67.9275 137.646 66.0811 135.439 66.5148 133.254C66.9486 131.069 69.4982 129.734 72.2099 130.273C74.9212 130.811 76.7676 133.018 76.3343 135.203Z" fill="#FF8F00"/>
<path d="M74.0785 148.743C74.0322 149.394 73.446 149.877 72.793 149.877H48.2566C47.2659 149.877 46.4626 149.074 46.4626 148.084C46.4626 147.745 46.5587 147.413 46.7396 147.126L58.0123 129.269H58.3395C59.0086 129.269 59.4289 129.994 59.0903 130.574L50.0816 146.137C49.747 146.713 50.1633 147.431 50.825 147.431H72.8581C73.1966 147.431 73.5015 147.569 73.7243 147.792C73.9632 148.029 74.1047 148.369 74.0785 148.743Z" fill="#01579B"/>
<path d="M145.448 147.324C136.332 150.089 102.572 149.877 102.572 149.877L146.192 138.27C150.753 137.056 153.658 132.593 152.916 127.931C150.999 115.881 147.288 94.2593 144.564 88.9346C144.858 89.1089 145.153 89.3163 145.448 89.5653C145.448 89.5653 151.417 98.4609 157.577 116.73C163.738 135.003 154.568 144.563 145.448 147.324Z" fill="#D3AA7D"/>
<path d="M142.876 131.609C142.876 131.609 149.113 131.521 154.178 136.146" stroke="#9C897A" stroke-miterlimit="10" stroke-linecap="round" stroke-linejoin="round"/>
<path d="M129.825 80.8857C129.825 80.8857 138.032 83.6765 142.074 88.4613" stroke="#E5BC89" stroke-miterlimit="10" stroke-linecap="round" stroke-linejoin="round"/>
<path d="M88.9712 115.863C88.9712 115.863 93.5035 121.734 94.0836 128.494" stroke="#9C897A" stroke-miterlimit="10" stroke-linecap="round" stroke-linejoin="round"/>
<path d="M112.415 81.6158C112.415 81.6158 110.691 86.4504 117.888 87.0436C125.086 87.6367 132.974 80.5762 132.974 80.5762" stroke="#E5BC89" stroke-miterlimit="10" stroke-linecap="round" stroke-linejoin="round"/>
<path d="M102.571 141.032L100.886 148.299L102.734 148.583L103.674 141.032H102.571Z" fill="#D37A57"/>
<path d="M117.371 85.1465C117.371 85.1465 115.237 91.2268 113.753 106.952" stroke="#E5BC89" stroke-miterlimit="10" stroke-linecap="round" stroke-linejoin="round"/>
<path d="M131.154 48.2007C131.154 48.2007 127.792 47.4052 124.75 48.575" stroke="#543E2F" stroke-miterlimit="10" stroke-linecap="round" stroke-linejoin="round"/>
<path d="M109.077 46.458C109.077 46.458 108.738 51.3808 114.966 52.0841" stroke="#543E2F" stroke-miterlimit="10" stroke-linecap="round" stroke-linejoin="round"/>
<path d="M131.708 44.9561C131.708 44.9561 132.432 46.9125 131.805 48.1338" stroke="#543E2F" stroke-miterlimit="10" stroke-linecap="round" stroke-linejoin="round"/>
<path d="M103.502 42.96C103.502 42.96 103.221 45.9831 106.31 47.1721" stroke="#543E2F" stroke-miterlimit="10" stroke-linecap="round" stroke-linejoin="round"/>
<path d="M104.626 48.5752C104.626 48.5752 104.052 50.8379 106.187 51.8124" stroke="#543E2F" stroke-miterlimit="10" stroke-linecap="round" stroke-linejoin="round"/>
<path d="M114.594 40.8528C114.594 40.8528 118.577 39.106 124.235 41.6482C129.338 43.9415 129.825 46.7964 129.825 46.7964" stroke="#543E2F" stroke-miterlimit="10" stroke-linecap="round" stroke-linejoin="round"/>
<path d="M131.708 49.417C131.708 49.417 132.831 49.9473 132.831 51.5386C132.831 53.1299 132.061 54.7522 132.061 54.7522" stroke="#543E2F" stroke-miterlimit="10" stroke-linecap="round" stroke-linejoin="round"/>
<path d="M113.003 48.8564C113.003 48.8564 113.797 50.9623 118.431 51.1964C123.065 51.4306 124.563 51.4306 125.826 52.9279C127.09 54.4257 126.669 56.0638 126.669 56.0638" stroke="#543E2F" stroke-miterlimit="10" stroke-linecap="round" stroke-linejoin="round"/>
<path d="M111.268 0H69.0964C66.6542 0 64.6746 1.98005 64.6746 4.42225V11.6427C64.6746 14.0849 66.6542 16.0645 69.0964 16.0645H74.6818L73.3823 20.5523C73.1403 21.3879 74.0611 22.0785 74.7954 21.6124L83.5403 16.0645H111.268C113.71 16.0645 115.689 14.0849 115.689 11.6427V4.42225C115.69 1.98005 113.71 0 111.268 0Z" fill="#D9D9D9"/>
<path d="M70.4097 4.32227H110.201" stroke="white" stroke-miterlimit="10" stroke-linecap="round" stroke-linejoin="round"/>
<path d="M70.4097 7.69824H110.201" stroke="white" stroke-miterlimit="10" stroke-linecap="round" stroke-linejoin="round"/>
<path d="M70.4097 11.0742H110.201" stroke="white" stroke-miterlimit="10" stroke-linecap="round" stroke-linejoin="round"/>
<path d="M42.5632 79.6884C62.3928 79.6884 78.4679 63.6133 78.4679 43.7837C78.4679 23.954 62.3928 7.87891 42.5632 7.87891C22.7336 7.87891 6.65845 23.954 6.65845 43.7837C6.65845 63.6133 22.7336 79.6884 42.5632 79.6884Z" stroke="#BBBFBD" stroke-miterlimit="10"/>
<path d="M76.1891 43.78C76.1891 56.3286 69.3151 67.2711 59.1283 73.0492C57.9869 73.6965 56.8036 74.2823 55.5875 74.7925C51.5815 76.4777 47.1815 77.4077 42.5658 77.4077C42.2587 77.4077 41.9556 77.4033 41.6524 77.395C41.4655 77.3906 41.279 77.3823 41.092 77.3701C40.9592 77.3701 40.8304 77.3662 40.6976 77.3535C40.4984 77.3452 40.2992 77.3325 40.104 77.3164C40.021 77.312 39.938 77.3081 39.855 77.2954C39.6182 77.2827 39.3858 77.2583 39.1535 77.2373C38.8835 77.2085 38.6179 77.1792 38.3523 77.146L46.667 65.1203L24.5789 41.1727L10.1664 52.8167C10.017 52.2772 9.87989 51.7373 9.7554 51.1852C9.70997 50.9777 9.6641 50.7659 9.62261 50.5584C9.56451 50.2845 9.51035 50.0063 9.46492 49.7324C9.43172 49.5498 9.39852 49.3672 9.37363 49.1846C9.32776 48.923 9.29063 48.6574 9.25307 48.3918C9.2321 48.2424 9.21157 48.097 9.19497 47.9476C9.1657 47.7191 9.13688 47.4867 9.11591 47.2544L9.10324 47.1172C9.07834 46.8682 9.05345 46.6192 9.03685 46.3659C9.01588 46.0877 8.99535 45.8098 8.98268 45.5272V45.5106C8.96609 45.2241 8.95342 44.938 8.94949 44.6471C8.94119 44.3605 8.93726 44.07 8.93726 43.7796C8.93726 38.1963 10.2988 32.9327 12.7065 28.2999C17.7088 18.6701 27.2356 11.7668 38.4725 10.4013C39.8135 10.2392 41.1789 10.1562 42.5654 10.1562C48.2107 10.1562 53.5367 11.551 58.2066 14.0124L43.5617 25.839L53.3375 55.4816L72.2954 28.068C74.7817 32.755 76.1891 38.1054 76.1891 43.78Z" fill="#FF8F00"/>
<path d="M12.6178 28.2715L24.4899 41.1438L10.0774 52.7878C9.92799 52.2483 9.79083 51.7084 9.66634 51.1563C9.62091 50.9488 9.57505 50.737 9.53355 50.5295C9.47545 50.2556 9.42129 49.9774 9.37586 49.7035C9.34266 49.5209 9.30947 49.3383 9.28457 49.1557C9.23914 48.8941 9.20157 48.6285 9.16401 48.3629C9.14304 48.2135 9.12251 48.0681 9.10591 47.9187C9.07665 47.6902 9.04782 47.4578 9.02685 47.2255L9.01462 47.0883C8.98972 46.8393 8.96482 46.5903 8.94823 46.337C8.9277 46.0587 8.90673 45.7809 8.89406 45.4983V45.4817C8.87746 45.1952 8.86523 44.9091 8.86086 44.6182C8.85256 44.3316 8.84863 44.0411 8.84863 43.7507C8.84863 38.1674 10.2102 32.9038 12.6178 28.2715Z" fill="#FF8F00"/>
<path d="M55.4985 74.7631C51.4925 76.4483 47.0926 77.3782 42.4764 77.3782C42.1693 77.3782 41.8662 77.3739 41.563 77.3656C41.3761 77.3612 41.1896 77.3529 41.0026 77.3407C40.8698 77.3407 40.7409 77.3363 40.6082 77.3241C40.409 77.3158 40.2098 77.3031 40.0145 77.2869C39.9315 77.2826 39.8486 77.2786 39.7656 77.266C39.5288 77.2537 39.2964 77.2288 39.064 77.2079C38.7941 77.179 38.5285 77.1498 38.2629 77.1166L46.5776 65.0908L55.4985 74.7631Z" fill="#FF8F00"/>
<path d="M58.1179 13.9841L43.473 25.8107L38.3838 10.373C39.7248 10.2109 41.0903 10.1279 42.4767 10.1279C48.122 10.1275 53.4476 11.5222 58.1179 13.9841Z" fill="#FF8F00"/>
<path d="M76.0999 43.7506C76.0999 56.2992 69.2259 67.2417 59.0391 73.0198L53.2483 55.4527L72.2062 28.0391C74.6929 32.7256 76.0999 38.076 76.0999 43.7506Z" fill="#FF8F00"/>
<path d="M46.5778 65.0915L38.2631 77.1172C38.0513 77.0923 37.8398 77.0635 37.628 77.0299C37.4537 77.005 37.2794 76.9801 37.1051 76.9512C36.9099 76.9224 36.719 76.8888 36.5237 76.8516C36.2665 76.8062 36.0092 76.7603 35.7515 76.7062C35.5313 76.6608 35.3116 76.6149 35.0954 76.5651C34.9582 76.5358 34.8215 76.5026 34.6843 76.4694C34.5018 76.4279 34.3231 76.3821 34.1405 76.3366C33.5469 76.1873 32.9616 76.0169 32.3806 75.8343C32.1688 75.7679 31.9574 75.7015 31.7499 75.6308C31.4677 75.5351 31.1894 75.4399 30.9156 75.3359C30.6583 75.2446 30.401 75.145 30.1477 75.0454C29.8904 74.9458 29.637 74.8419 29.388 74.734C29.1391 74.63 28.8901 74.5221 28.645 74.4103C28.645 74.4103 28.6411 74.4103 28.6367 74.406C28.3878 74.2937 28.1427 74.1775 27.8977 74.0613C27.1503 73.7044 26.4239 73.3183 25.7101 72.9073C25.486 72.7745 25.262 72.6417 25.0418 72.5089C24.577 72.2306 24.1201 71.9362 23.6759 71.6331C23.4518 71.4837 23.2317 71.33 23.012 71.1723C22.7918 71.0185 22.5721 70.8569 22.3559 70.6948C22.3476 70.6905 22.3393 70.6822 22.327 70.6739C22.1235 70.5201 21.916 70.3624 21.7168 70.2047C21.5382 70.0636 21.3639 69.9265 21.1896 69.7815C20.9323 69.574 20.679 69.3582 20.43 69.142C20.2391 68.976 20.0521 68.81 19.8656 68.6396C19.6787 68.4693 19.4922 68.295 19.3052 68.1207C19.2842 68.0998 19.2637 68.0832 19.2471 68.0666C19.0645 67.8879 18.8819 67.7097 18.6994 67.5271C18.5417 67.3694 18.384 67.2074 18.2263 67.0457C18.0105 66.8217 17.7947 66.5932 17.5868 66.3608C17.4042 66.1616 17.2256 65.9581 17.0513 65.7545C16.9102 65.5968 16.7774 65.4348 16.6446 65.2732C16.5616 65.1819 16.4869 65.0906 16.4122 64.9949C16.2794 64.8329 16.1506 64.6712 16.0222 64.5092C15.8767 64.3266 15.7356 64.144 15.5989 63.9571C15.4119 63.712 15.2293 63.4674 15.0551 63.2141C14.8974 62.9939 14.7436 62.7742 14.5942 62.5497C14.4863 62.392 14.3824 62.2343 14.2789 62.0722C14.2125 61.9766 14.15 61.877 14.088 61.7774C13.8058 61.3375 13.5319 60.885 13.2703 60.4281C13.1497 60.2123 13.0296 59.9965 12.909 59.7764C12.6351 59.274 12.3735 58.7634 12.1285 58.2445C12.0206 58.0287 11.921 57.8086 11.8214 57.5888C11.7174 57.3565 11.6139 57.1241 11.5143 56.8917C11.506 56.8751 11.5021 56.8541 11.4938 56.8375C11.3898 56.5925 11.2863 56.3435 11.1867 56.0945C11.1867 56.0862 11.1823 56.0779 11.1784 56.0657C11.0788 55.8167 10.9831 55.5634 10.8918 55.3104C10.8006 55.0698 10.7132 54.8247 10.6302 54.5757C10.5555 54.3556 10.4808 54.1315 10.41 53.9074C10.3603 53.7414 10.3061 53.5711 10.2563 53.4051C10.2524 53.3924 10.248 53.3841 10.248 53.3719C10.1899 53.1766 10.1318 52.9818 10.0776 52.7866L24.4901 41.1426L46.5778 65.0915Z" fill="#01579B"/>
<path d="M72.2063 28.039L53.2484 55.4526L43.4727 25.81L58.1175 13.9834C64.1162 17.138 69.0395 22.0486 72.2063 28.039Z" fill="#01579B"/>
<path d="M53.2483 55.4527L46.5778 65.0913L24.4897 41.1437L43.4726 25.8096L53.2483 55.4527Z" fill="#FF8F00"/>
<path d="M48.7012 39.0737L48.8069 37.3033L49.9884 36.7394C53.3702 35.1254 55.5245 31.7117 55.5245 27.9639C55.5245 24.7066 54.4893 21.535 52.5691 18.9058L51.2499 17.0996L40.0034 20.8649L40.1013 25.0893H39.3587C37.8504 25.0893 36.6273 26.3119 36.6273 27.8206C36.6273 29.3289 37.85 30.552 39.3587 30.552H40.2275L40.3599 36.286V38.2988C40.3599 38.2988 38.3287 40.2557 34.4739 41.916C34.4739 41.916 38.7716 47.3123 45.8737 47.6683C52.9758 48.0243 53.2492 43.7536 53.2492 43.7536C53.2492 43.7536 50.3042 41.9907 48.6155 40.5304L48.7012 39.0737Z" fill="#FF996A"/>
<path d="M48.807 37.3031L48.7013 39.0735C48.4021 39.0381 48.0885 38.9914 47.763 38.9319C42.7341 38.0151 40.7654 33.4697 40.9694 31.1279C40.9694 31.1279 42.6655 36.7606 48.807 37.3031Z" fill="#D37A57"/>
<path d="M39.2736 27.0383C39.4841 27.1977 39.6781 27.4087 39.7475 27.6721C39.7475 27.6721 39.3278 27.8119 39.2893 28.2828C39.2513 28.7537 39.7475 28.9572 39.7475 28.9572C39.7475 28.9572 39.3658 29.5932 38.7298 29.2499C38.0938 28.9065 38.1991 27.7071 38.8315 27.4559C38.8315 27.4559 37.8265 27.3415 37.4574 27.7106C37.4574 27.7106 37.373 27.3406 37.7933 27.013C38.2266 26.6758 38.8359 26.7068 39.2736 27.0383Z" fill="#D37A57"/>
<path d="M48.5649 23.711C48.5064 23.7128 48.4479 23.7342 48.3998 23.7757C47.4397 24.6152 46.4521 23.9548 46.442 23.9478C46.3224 23.8657 46.159 23.8963 46.0769 24.0159C45.9948 24.1356 46.0253 24.299 46.1446 24.3811C46.6019 24.6947 47.7341 25.0555 48.7453 24.1714C48.8545 24.0762 48.8659 23.9102 48.7702 23.801C48.7169 23.739 48.6405 23.7089 48.5649 23.711Z" fill="#3F2D1F"/>
<path d="M54.474 24.3568C54.4225 24.3284 54.3613 24.317 54.2993 24.3288C53.0457 24.5634 52.5307 23.4928 52.5259 23.4819C52.4647 23.3499 52.3083 23.2936 52.1769 23.3547C52.0454 23.4159 51.9886 23.5723 52.0497 23.7038C52.2843 24.2065 53.0758 25.0924 54.3958 24.8456C54.5387 24.8189 54.6326 24.6818 54.6055 24.5389C54.5902 24.4581 54.5404 24.3935 54.474 24.3568Z" fill="#3F2D1F"/>
<path d="M48.4213 26.8339C48.4213 26.8339 48.4196 27.8569 47.0803 28.0264C45.7411 28.1958 45.4973 26.8339 45.4973 26.8339C45.4973 26.8339 46.2578 26.121 47.241 26.1C48.2239 26.0791 48.4213 26.8339 48.4213 26.8339Z" fill="white"/>
<path d="M54.5388 26.8333C54.5388 26.8333 54.537 27.8563 53.227 28.0258C51.9171 28.1957 51.7415 26.8342 51.7415 26.8342C51.7415 26.8342 52.4224 26.12 53.3843 26.099C54.3457 26.0785 54.5388 26.8333 54.5388 26.8333Z" fill="white"/>
<path d="M51.741 26.835C51.741 26.835 52.4425 26.064 53.1938 25.9255C53.9447 25.787 54.4601 26.1527 54.5387 26.835C54.5387 26.835 54.3898 26.2715 53.6385 26.2025C52.8876 26.1334 51.741 26.835 51.741 26.835Z" fill="#3F2D1F"/>
<path d="M45.4973 26.8339C45.4973 26.8339 46.2307 26.0284 47.0157 25.8838C47.8006 25.7392 48.3392 26.1214 48.4209 26.8339C48.4209 26.8339 48.2654 26.245 47.4804 26.173C46.6955 26.1009 45.4973 26.8339 45.4973 26.8339Z" fill="#3F2D1F"/>
<path d="M50.4546 26.8633L51.0722 30.591C51.0722 30.591 51.5636 30.629 52.2442 30.3516C52.2442 30.3516 50.6311 27.2822 50.4546 26.8633Z" fill="#D37A57"/>
<path d="M46.2961 27.096C46.2961 27.683 46.6722 28.1587 47.1361 28.1587C47.6 28.1587 47.9761 27.683 47.9761 27.096C47.9761 26.5093 47.6 26.0332 47.1361 26.0332C46.6722 26.0332 46.2961 26.5093 46.2961 27.096Z" fill="#3F2D1F"/>
<path d="M52.1855 27.1292C52.1855 27.6979 52.5525 28.1587 53.005 28.1587C53.4575 28.1587 53.824 27.6979 53.824 27.1292C53.824 26.5604 53.4571 26.0996 53.005 26.0996C52.552 26.0996 52.1855 26.5604 52.1855 27.1292Z" fill="#3F2D1F"/>
<path d="M44.6476 30.5933C45.3243 30.5933 45.8729 30.2176 45.8729 29.7541C45.8729 29.2907 45.3243 28.915 44.6476 28.915C43.9709 28.915 43.4224 29.2907 43.4224 29.7541C43.4224 30.2176 43.9709 30.5933 44.6476 30.5933Z" fill="#D37A57"/>
<path d="M54.6544 30.1909C55.3313 30.1909 55.8801 29.8152 55.8801 29.3518C55.8801 28.8884 55.3313 28.5127 54.6544 28.5127C53.9775 28.5127 53.4287 28.8884 53.4287 29.3518C53.4287 29.8152 53.9775 30.1909 54.6544 30.1909Z" fill="#D37A57"/>
<path d="M50.8997 32.0273C50.8997 32.0273 48.9205 32.0941 48.1199 32.8279C47.3192 33.5618 50.2768 33.7841 50.8997 33.4949C51.5222 33.2062 51.7991 31.9347 50.8997 32.0273Z" fill="white"/>
<path d="M46.0755 26.4329C46.0755 26.4329 45.681 26.6198 45.2512 26.3438C45.2512 26.3438 45.2914 26.7482 45.4976 26.8338L46.0755 26.4329Z" fill="#3F2D1F"/>
<path d="M54.0852 26.1582C54.0852 26.1582 54.5508 26.5435 54.9047 26.4251C55.0348 26.3814 54.5399 26.8348 54.5399 26.8348C54.422 26.405 54.0852 26.1582 54.0852 26.1582Z" fill="#3F2D1F"/>
<path d="M56.7884 45.9102C56.7884 45.9102 63.0863 57.4209 65.4879 67.0735L58.9943 70.855C58.9943 70.855 56.4132 65.6958 55.5243 57.7791C54.6358 49.862 56.7884 45.9102 56.7884 45.9102Z" fill="#847062"/>
<path d="M53.2484 19.9189C53.2484 19.9189 46.9558 25.8744 41.2039 25.2222C41.2039 25.2222 40.581 29.4029 41.6188 31.0042C41.6188 31.0042 41.1742 31.445 40.5513 29.7716C39.9284 28.0981 40.4202 25.7866 40.1001 25.0894C40.1001 25.0894 38.1807 24.6347 36.9197 26.589C35.6586 28.5433 38.4188 30.9295 40.2263 30.5517L40.3093 34.1453C40.3093 34.1453 38.2384 34.918 36.489 33.4355C34.7395 31.953 35.5996 30.4408 35.5996 30.4408C35.5996 30.4408 32.9609 27.8361 32.8421 24.2189C32.7232 20.6017 35.7328 18.3285 35.7328 18.3285C35.7328 18.3285 36.7261 12.9767 43.3381 12.9173C49.9501 12.8579 51.8773 14.8445 51.8773 14.8445C51.8773 14.8445 56.1453 15.5709 57.3479 20.1076C58.5504 24.6443 55.5237 27.0703 55.5237 27.0703C55.5237 27.0703 54.6488 21.2577 53.2484 19.9189Z" fill="#3F2D1F"/>
<path d="M36.8454 17.7061C36.8454 17.7061 36.5275 13.8193 32.839 13.9836C29.1511 14.1478 28.4395 18.3731 30.0404 20.33C31.6418 22.2869 33.7319 21.8422 35.2887 20.33C36.8454 18.8182 36.8454 17.7061 36.8454 17.7061Z" fill="#3F2D1F"/>
<path d="M41.6585 32.9992L39.3339 37.8395C39.2509 38.0138 39.0307 38.0636 38.8774 37.9474L38.7817 37.8727L31.1647 31.9863C31.0485 31.895 31.0109 31.7329 31.0817 31.6001L33.7091 26.7891L33.7715 26.6769C33.8589 26.5109 34.0786 26.4694 34.2241 26.5895L41.5799 32.6376C41.6834 32.7253 41.7166 32.8747 41.6585 32.9992Z" fill="white"/>
<path d="M57.6903 73.7882C53.1449 76.0836 48.0058 77.3748 42.5636 77.3748C38.0846 77.3748 33.8091 76.499 29.9028 74.9051L27.416 46.4243C27.416 46.4243 27.9266 44.4609 30.9734 43.34C34.4355 42.0615 34.4726 41.916 34.4726 41.916C47.6691 48.5577 53.248 43.7506 53.248 43.7506L56.1536 45.2283C56.4402 45.3738 56.6642 45.6145 56.7887 45.9093C57.4737 47.5491 59.7442 53.2359 59.9726 57.1545C60.1517 60.2768 58.674 68.6657 57.6903 73.7882Z" fill="#9C897A"/>
<path d="M28.8727 44.4922C28.8727 44.4922 25.6548 45.7698 24.4898 54.1906C23.3244 62.6114 24.5684 67.073 24.5684 67.073L30.9742 59.4686C30.9742 59.4686 33.167 47.8111 28.8727 44.4922Z" fill="#9C897A"/>
<path d="M38.4376 32.1759C37.8234 32.5306 36.2247 33.6488 35.939 34.1197C35.8019 34.3464 35.7447 34.6045 35.7211 34.8133L35.3192 34.6128C35.5219 33.7462 35.8962 32.88 35.8962 32.88C35.8962 32.88 36.5335 32.5389 36.8895 32.0348C37.2455 31.5307 37.1119 31.128 37.1119 31.128C36.869 31.2682 36.4781 31.5237 36.0705 31.8129C36.0762 31.805 36.0832 31.7981 36.0889 31.7898C36.4444 31.2857 36.3112 30.8829 36.3112 30.8829C35.6735 31.2512 34.0136 32.4122 33.717 32.9014C33.5571 33.1653 33.5021 33.4693 33.4837 33.696L33.3715 33.6401C33.5619 32.7232 33.9839 31.7452 33.9839 31.7452C33.9839 31.7452 34.6212 31.4041 34.9772 30.9C35.3327 30.3959 35.1995 29.9932 35.1995 29.9932C34.5618 30.3614 32.9019 31.5224 32.6053 32.0117C32.3087 32.5009 32.3681 33.1382 32.3681 33.1382L32.6053 37.3189L32.839 41.9145C32.839 41.9145 24.392 61.2468 24.4899 65.9613C24.5877 70.6757 27.4165 72.5435 27.4165 72.5435C27.4165 72.5435 30.4409 72.1875 32.3681 69.2102C34.2953 66.2329 36.0744 43.5451 36.0744 43.5451C36.0744 43.5451 37.0826 42.0032 37.2604 40.5285C37.4382 39.0539 36.7611 35.3318 36.7611 35.3318C36.962 34.5687 37.2669 33.862 37.2669 33.862C37.2669 33.862 37.8811 33.5335 38.2235 33.0482C38.566 32.5633 38.4376 32.1759 38.4376 32.1759Z" fill="#FF996A"/>
<path d="M41.6585 32.9998L39.3338 37.84C39.2508 38.0143 39.0306 38.0641 38.8773 37.9479L38.7816 37.8732L41.1312 32.8216L33.709 26.7901L33.7714 26.6778C33.8588 26.5119 34.0785 26.4704 34.224 26.5905L41.5798 32.6385C41.6834 32.7259 41.7165 32.8753 41.6585 32.9998Z" fill="#D9D9D9"/>
<path d="M33.7096 27.7578L33.3872 28.3916L34.9885 29.6811L35.3555 29.0695L33.7096 27.7578Z" fill="#D9D9D9"/>
<path d="M80.0169 46.8415L78.2225 47.1753L78.174 47.0163C78.6929 46.8389 79.9121 46.3593 80.4056 45.6194C81.0399 44.668 81.2622 43.7481 81.2622 43.7481C81.2622 43.7481 80.1628 44.3234 79.7395 45.4215L78.8895 45.5796C79.2302 45.3686 79.546 45.1131 79.7443 44.8156C80.3786 43.8638 80.6009 42.9443 80.6009 42.9443C80.6009 42.9443 79.5015 43.5196 79.0782 44.6178L78.0063 44.8169C78.4509 44.4679 78.9166 44.0128 79.1109 43.5205C79.5312 42.4569 79.5547 41.5107 79.5547 41.5107C79.5547 41.5107 78.6012 42.3044 78.4182 43.4668L77.2397 43.959L72.0818 45.57L72.1207 44.8252C72.1207 44.8252 72.3151 44.7086 72.8598 44.2805C73.4045 43.8525 74.0842 42.076 74.0842 42.076C74.0842 42.076 71.3812 43.3466 70.7225 44.7471C70.0638 46.1475 69.4361 49.61 69.4361 49.61C69.4361 49.61 63.2373 64.5266 62.1366 68.6361C62.1366 68.6361 60.0076 69.4595 58.9946 70.8542C58.9946 70.8542 61.159 74.8274 62.8787 75.2424C62.8787 75.2424 67.8601 74.2936 70.232 68.4819C72.6038 62.6702 73.5596 50.9318 73.5596 50.9318L78.5387 48.2088C78.5387 48.2088 80.0431 47.7807 80.5616 47.0027C81.0805 46.2248 81.2618 45.4726 81.2618 45.4726C81.2618 45.4726 80.3628 45.9439 80.0169 46.8415Z" fill="#FF996A"/>
<path d="M57.8398 63.7697C57.8398 63.7697 54.9232 63.208 49.9314 63.208C44.9395 63.208 39.9473 64.1441 39.9473 64.1441" stroke="#847062" stroke-miterlimit="10" stroke-linecap="round" stroke-linejoin="round"/>
<path d="M52.583 16.4082C52.583 16.4082 53.3863 17.889 53.3173 18.9041" stroke="#543E2F" stroke-miterlimit="10" stroke-linecap="round" stroke-linejoin="round"/>
<path d="M51.3496 15.2842C51.3496 15.2842 48.0901 16.3452 46.2961 18.9036" stroke="#543E2F" stroke-miterlimit="10" stroke-linecap="round" stroke-linejoin="round"/>
<path d="M36.2337 16.9385C36.2337 16.9385 35.7035 18.124 35.672 18.5608C35.672 18.5608 33.93 20.1831 33.709 21.1192" stroke="#543E2F" stroke-miterlimit="10" stroke-linecap="round" stroke-linejoin="round"/>
<path d="M29.6816 21.3369C29.8066 21.4304 31.5293 22.7356 33.2967 21.6357" stroke="#543E2F" stroke-miterlimit="10" stroke-linecap="round" stroke-linejoin="round"/>
<path d="M38.3833 16.4075C38.3833 16.4075 42.4268 12.6789 49.1196 14.6446" stroke="#543E2F" stroke-miterlimit="10" stroke-linecap="round" stroke-linejoin="round"/>
<path d="M39.198 24.1081C39.198 24.1081 40.9347 24.8083 44.6476 24.1081C48.3605 23.4079 51.7409 19.6055 51.7409 19.6055" stroke="#543E2F" stroke-miterlimit="10" stroke-linecap="round" stroke-linejoin="round"/>
<path d="M37.6985 44.4922C37.6985 44.4922 42.7759 46.6098 47.9761 46.2979C53.1763 45.9861 53.8241 45.05 53.8241 45.05" stroke="#847062" stroke-miterlimit="10" stroke-linecap="round" stroke-linejoin="round"/>
</svg>
