<svg width="24" height="24" viewBox="0 0 24 24" fill="none" xmlns="http://www.w3.org/2000/svg">
<path d="M20.2422 5H3.75781C2.7866 5 2 5.79148 2 6.75781V17.3047C2 18.2768 2.79238 19.0625 3.75781 19.0625H20.2422C21.2053 19.0625 22 18.2801 22 17.3047V6.75781C22 5.7932 21.2165 5 20.2422 5ZM19.996 6.17188L13.243 12.8893C12.9109 13.2214 12.4695 13.4042 12 13.4042C11.5305 13.4042 11.0891 13.2213 10.7559 12.8882L4.00398 6.17188H19.996ZM3.17188 17.0662V6.99707L8.23586 12.0344L3.17188 17.0662ZM4.00473 17.8906L9.06672 12.8608L9.9284 13.718C10.4818 14.2713 11.2175 14.5761 12 14.5761C12.7825 14.5761 13.5182 14.2713 14.0705 13.7191L14.9333 12.8608L19.9953 17.8906H4.00473ZM20.8281 17.0662L15.7641 12.0344L20.8281 6.99707V17.0662Z" fill="url(#paint0_linear_406_1296)"/>
<defs>
<linearGradient id="paint0_linear_406_1296" x1="2" y1="12.0312" x2="22" y2="12.0312" gradientUnits="userSpaceOnUse">
<stop stop-color="#01579B"/>
<stop offset="1" stop-color="#001E35"/>
</linearGradient>
</defs>
</svg>
