<svg width="36" height="44" viewBox="0 0 36 44" fill="none" xmlns="http://www.w3.org/2000/svg">
<path d="M3 35.5V32.5H16.5V15.7375C15.85 15.5125 15.2875 15.1625 14.8125 14.6875C14.3375 14.2125 13.9875 13.65 13.7625 13H9L13.5 23.5C13.5 24.75 12.9875 25.8125 11.9625 26.6875C10.9375 27.5625 9.7 28 8.25 28C6.8 28 5.5625 27.5625 4.5375 26.6875C3.5125 25.8125 3 24.75 3 23.5L7.5 13H4.5V10H13.7625C14.0625 9.125 14.6 8.40625 15.375 7.84375C16.15 7.28125 17.025 7 18 7C18.975 7 19.85 7.28125 20.625 7.84375C21.4 8.40625 21.9375 9.125 22.2375 10H31.5V13H28.5L33 23.5C33 24.75 32.4875 25.8125 31.4625 26.6875C30.4375 27.5625 29.2 28 27.75 28C26.3 28 25.0625 27.5625 24.0375 26.6875C23.0125 25.8125 22.5 24.75 22.5 23.5L27 13H22.2375C22.0125 13.65 21.6625 14.2125 21.1875 14.6875C20.7125 15.1625 20.15 15.5125 19.5 15.7375V32.5H33V35.5H3ZM24.9375 23.5H30.5625L27.75 16.975L24.9375 23.5ZM5.4375 23.5H11.0625L8.25 16.975L5.4375 23.5ZM18 13C18.425 13 18.7813 12.8562 19.0688 12.5687C19.3563 12.2812 19.5 11.925 19.5 11.5C19.5 11.075 19.3563 10.7187 19.0688 10.4312C18.7813 10.1437 18.425 10 18 10C17.575 10 17.2188 10.1437 16.9313 10.4312C16.6438 10.7187 16.5 11.075 16.5 11.5C16.5 11.925 16.6438 12.2812 16.9313 12.5687C17.2188 12.8562 17.575 13 18 13Z" fill="#1E293B"/>
</svg>
